<?xml version="1.0" standalone="no"?><!DOCTYPE svg PUBLIC "-//W3C//DTD SVG 1.1//EN" "http://www.w3.org/Graphics/SVG/1.1/DTD/svg11.dtd"><svg t="1743219942942" class="icon" viewBox="0 0 1375 1024" version="1.1" xmlns="http://www.w3.org/2000/svg" p-id="22775" xmlns:xlink="http://www.w3.org/1999/xlink" width="268.5546875" height="200"><path d="M1319.643429 1005.860571H56.700343a29.257143 29.257143 0 1 1 0-58.514285h1262.943086a29.257143 29.257143 0 1 1 0 58.514285z m-599.6544-194.647771h-0.4096c-41.632914-0.234057-92.9792-33.967543-112.2304-128.087771L501.438171 165.302857c-11.702857-57.256229-38.063543-83.324343-56.758857-82.856228-19.982629 0.234057-46.460343 27.794286-57.344 87.888457l-77.765485 429.319314c-12.931657 71.358171-48.3328 121.212343-94.676115 133.354057-33.557943 8.864914-67.759543-4.242286-93.915428-35.810743l-86.805943-104.8576a29.257143 29.257143 0 1 1 45.085257-37.332114l86.805943 104.8576c11.4688 13.867886 22.9376 19.456 33.9968 16.559543 18.900114-4.973714 42.247314-33.850514 51.902171-87.215543L329.728 159.919543c18.0224-99.474286 70.8608-135.460571 114.249143-135.957943h0.877714c42.422857 0 94.325029 33.9968 113.8688 129.609143l105.910857 517.851428c11.410286 55.7056 36.629943 81.188571 55.237486 81.276343h0.117029c18.8416 0 43.008-24.400457 54.798628-79.023543 15.915886-73.786514 56.758857-122.294857 106.642286-126.507885 44.295314-3.861943 84.406857 28.145371 107.490743 85.430857l25.219657 62.493257c11.995429 29.813029 30.251886 49.034971 46.518857 49.034971h258.925714a29.257143 29.257143 0 1 1 0 58.514286h-258.925714c-41.486629 0-79.199086-32.036571-100.820114-85.723428l-25.1904-62.464c-12.756114-31.626971-31.451429-50.614857-48.274286-48.976458-18.753829 1.579886-42.861714 27.121371-54.418286 80.515658-19.894857 92.335543-70.802286 125.220571-111.996343 125.220571z" fill="#13227a" p-id="22776"></path></svg>