<?xml version="1.0" standalone="no"?><!DOCTYPE svg PUBLIC "-//W3C//DTD SVG 1.1//EN" "http://www.w3.org/Graphics/SVG/1.1/DTD/svg11.dtd"><svg t="1743220116192" class="icon" viewBox="0 0 1024 1024" version="1.1" xmlns="http://www.w3.org/2000/svg" p-id="6286" xmlns:xlink="http://www.w3.org/1999/xlink" width="200" height="200"><path d="M795.5456 102.4A177.2544 177.2544 0 0 1 972.8 279.6544v99.4816a153.7024 153.7024 0 0 0-102.4-69.4272v-30.0544C870.4 238.2848 836.9152 204.8 795.5456 204.8H228.4544C187.0848 204.8 153.6 238.2848 153.6 279.6544v464.6912C153.6 785.7152 187.0848 819.2 228.4544 819.2h401.2032l81.9712 102.4H228.4544A177.2544 177.2544 0 0 1 51.2 744.3456V279.6544A177.2544 177.2544 0 0 1 228.4544 102.4h567.0912z m47.2064 307.2a51.2 51.2 0 0 1 51.2 51.2v204.8h100.352a25.6 25.6 0 0 1 12.3904 3.2256l3.584 2.4064a25.6 25.6 0 0 1 6.5536 32.1024l-2.56 3.84-131.584 164.4544a51.2 51.2 0 0 1-75.6224 4.7616l-4.3008-4.7616-131.584-164.4544a25.6 25.6 0 0 1 15.4112-41.1648L691.2 665.6l100.352-0.0512V460.8a51.2 51.2 0 0 1 51.2-51.2z m-153.6 61.184V563.2a128 128 0 0 0-106.5472 195.7376H259.9424a62.976 62.976 0 0 1-62.6688-56.6272l-0.3584-6.4512v-38.5536c74.3936-165.12 156.3648-165.12 245.9648 0 85.76-178.8416 167.8336-241.0496 246.272-186.5216zM332.8 256a76.8 76.8 0 1 1 0 153.6 76.8 76.8 0 0 1 0-153.6z" fill="#cb4185" p-id="6287"></path></svg>