<?xml version="1.0" standalone="no"?><!DOCTYPE svg PUBLIC "-//W3C//DTD SVG 1.1//EN" "http://www.w3.org/Graphics/SVG/1.1/DTD/svg11.dtd"><svg t="1745424493665" class="icon" viewBox="0 0 1024 1024" version="1.1" xmlns="http://www.w3.org/2000/svg" p-id="17607" xmlns:xlink="http://www.w3.org/1999/xlink" width="200" height="200"><path d="M803.231 63.664H418.315c-24.623 0-46.173 19.453-46.173 44.919v149.669c0 25.435-20.047 44.92-46.172 44.92H171.978c-26.125 0-46.172 19.452-46.172 44.887v523.936c0 49.398 41.597 89.807 92.346 89.807h585.08c50.809 0 92.407-40.408 92.407-89.807V153.47c-0.001-49.398-41.598-89.806-92.408-89.806zM703.18 737.269H318.264c-12.342 0-23.118-10.464-23.118-22.46 0-11.965 10.776-22.46 23.118-22.46H703.18c12.278 0 23.055 10.495 23.055 22.46 0 11.996-10.777 22.46-23.055 22.46z m0-149.7H318.264c-12.342 0-23.118-10.464-23.118-22.429 0-11.998 10.776-22.46 23.118-22.46H703.18c12.278 0 23.055 10.463 23.055 22.46 0 11.965-10.777 22.428-23.055 22.428z m0-149.67H456.842c-12.342 0-23.118-10.494-23.118-22.46 0-11.966 10.776-22.46 23.118-22.46H703.18c12.278 0 23.055 10.493 23.055 22.46 0 11.966-10.777 22.46-23.055 22.46zM159.636 259.754h118.595c26.187 0 46.174-19.452 46.174-44.919V92.106c0-16.478-9.21-20.956-21.553-8.99L148.86 237.296c-10.777 11.997-6.14 22.459 10.776 22.459z m0 0" fill="#515151" p-id="17608"></path></svg>